<svg width="24" height="20" viewBox="0 0 24 20" fill="none" xmlns="http://www.w3.org/2000/svg">
<path d="M6.71994 7.11437L3.25682 10L6.71994 12.8856C6.8348 12.9797 6.92988 13.0957 6.99971 13.2267C7.06954 13.3578 7.11273 13.5014 7.12679 13.6492C7.14086 13.797 7.12552 13.9462 7.08166 14.088C7.03781 14.2299 6.9663 14.3617 6.87126 14.4758C6.77622 14.5899 6.65953 14.684 6.52793 14.7528C6.39632 14.8216 6.2524 14.8636 6.10447 14.8765C5.95653 14.8894 5.80751 14.8729 5.666 14.8279C5.52448 14.7829 5.39328 14.7103 5.27994 14.6144L0.779944 10.8644C0.653204 10.7588 0.551233 10.6266 0.481254 10.4773C0.411275 10.3279 0.375 10.165 0.375 10C0.375 9.83505 0.411275 9.67211 0.481254 9.52274C0.551233 9.37336 0.653204 9.2412 0.779944 9.13562L5.27994 5.38562C5.50951 5.19749 5.80413 5.1077 6.0996 5.13581C6.39508 5.16393 6.66747 5.30767 6.85744 5.53573C7.0474 5.76379 7.13955 6.05768 7.11379 6.35337C7.08804 6.64906 6.94648 6.92259 6.71994 7.11437ZM23.2199 9.13562L18.7199 5.38562C18.6066 5.28968 18.4754 5.21711 18.3339 5.17212C18.1924 5.12713 18.0434 5.1106 17.8954 5.12349C17.7475 5.13637 17.6036 5.17841 17.472 5.24719C17.3404 5.31597 17.2237 5.41012 17.1286 5.52422C17.0336 5.63832 16.9621 5.7701 16.9182 5.91197C16.8744 6.05384 16.859 6.20299 16.8731 6.35081C16.8872 6.49864 16.9304 6.64222 17.0002 6.77327C17.07 6.90432 17.1651 7.02025 17.2799 7.11437L20.7431 10L17.2799 12.8856C17.1651 12.9797 17.07 13.0957 17.0002 13.2267C16.9304 13.3578 16.8872 13.5014 16.8731 13.6492C16.859 13.797 16.8744 13.9462 16.9182 14.088C16.9621 14.2299 17.0336 14.3617 17.1286 14.4758C17.2237 14.5899 17.3404 14.684 17.472 14.7528C17.6036 14.8216 17.7475 14.8636 17.8954 14.8765C18.0434 14.8894 18.1924 14.8729 18.3339 14.8279C18.4754 14.7829 18.6066 14.7103 18.7199 14.6144L23.2199 10.8644C23.3467 10.7588 23.4487 10.6266 23.5186 10.4773C23.5886 10.3279 23.6249 10.165 23.6249 10C23.6249 9.83505 23.5886 9.67211 23.5186 9.52274C23.4487 9.37336 23.3467 9.2412 23.2199 9.13562ZM15.3843 0.692498C15.2455 0.641996 15.098 0.619346 14.9504 0.625844C14.8027 0.632342 14.6578 0.667859 14.5239 0.730368C14.39 0.792876 14.2698 0.881151 14.17 0.990149C14.0702 1.09915 13.9929 1.22674 13.9424 1.36562L7.94244 17.8656C7.84074 18.146 7.85451 18.4552 7.98073 18.7254C8.10696 18.9956 8.3353 19.2047 8.61557 19.3066C8.73862 19.352 8.86878 19.3752 8.99994 19.375C9.23092 19.375 9.45632 19.304 9.64551 19.1715C9.8347 19.039 9.97853 18.8515 10.0574 18.6344L16.0574 2.13437C16.1079 1.9955 16.1306 1.84804 16.1241 1.70042C16.1176 1.55279 16.0821 1.40789 16.0196 1.27399C15.9571 1.1401 15.8688 1.01983 15.7598 0.920052C15.6508 0.820278 15.5232 0.742954 15.3843 0.692498Z" fill="url(#paint0_linear_1955_1623)"/>
<defs>
<linearGradient id="paint0_linear_1955_1623" x1="0.375" y1="9.99988" x2="23.6249" y2="9.99988" gradientUnits="userSpaceOnUse">
<stop stop-color="#DDECFF"/>
<stop offset="1" stop-color="#BADAFF"/>
</linearGradient>
</defs>
</svg>
